# xmcd
# Track frame offsets:
# 150
# 11762
# 27778
# 44022
# 56579
# 68392
# 86424
# 97914
# 108561
# 122297
# 134627
# 147958
#
# Disc length: 2166 seconds
# Revision: 0
# Processed by: cddbd v1.5.1PL2 Copyright (c) Steve Scherf et al.
# Submitted via: VisiTrax 2.9.10.228 - For more info visit www.synapsa.com
#
DISCID=9b08740c
DTITLE=Baz Hall - Don't Worry
DYEAR=1900
DGENRE=
TTITLE0=Travelin' Light
TTITLE1=Where'm I Goona Live
TTITLE2=Welcome To  My World
TTITLE3=Under Your Spell
TTITLE4=Before The Next Teardrop Falls
TTITLE5=Southern Streamline
TTITLE6=WWWDot Memory
TTITLE7=He'll Have To Go Alison
TTITLE8=Pop A Pop
TTITLE9=I Fall To Pieces
TTITLE10=Heartache By The Numbers
TTITLE11=Don't Worry
EXTD=
EXTT0=
EXTT1=
EXTT2=
EXTT3=
EXTT4=
EXTT5=
EXTT6=
EXTT7=
EXTT8=
EXTT9=
EXTT10=
EXTT11=
PLAYORDER=
